<svg width="171" height="29" viewBox="0 0 171 29" fill="none" xmlns="http://www.w3.org/2000/svg">
<path fill-rule="evenodd" clip-rule="evenodd" d="M41.5702 16.6871C42.6878 16.6871 43.5939 15.8836 43.5939 14.8923C43.5939 13.9014 42.6878 13.0992 41.5702 13.0992C40.4527 13.0992 39.5461 13.9014 39.5461 14.8923C39.5466 15.8836 40.4527 16.6871 41.5702 16.6871Z" fill="#005E9E"/>
<path fill-rule="evenodd" clip-rule="evenodd" d="M39.0216 25.9694C39.0216 25.4377 38.6633 24.9772 38.167 24.9692C36.8768 24.9471 33.4328 24.9692 33.4328 24.9692C33.4328 24.9692 33.4766 20.0925 33.473 17.1342H33.4746C33.4807 16.5349 33.4971 15.4759 33.4893 15.1308C33.4607 13.9223 31.7385 13.5447 30.7677 13.4967C29.887 13.4525 29.9353 14.2521 29.9353 14.2521V26.281C29.9353 27.0577 30.7428 27.2421 30.7428 27.2421H39.031C39.031 27.2421 39.0216 26.6054 39.0216 25.9694Z" fill="#005E9E"/>
<path fill-rule="evenodd" clip-rule="evenodd" d="M50.4707 17.6747C50.0867 13.5406 52.4216 13.7388 53.2831 13.9466C53.6071 13.9972 53.6108 13.6541 53.605 13.5564C53.5703 13.2184 53.3989 12.9314 53.1636 12.7258C52.3275 11.9945 50.7731 12.0872 50.7731 12.0872C47.9492 12.0872 47.071 14.2688 47.071 16.0525C47.071 16.9712 46.9814 17.6747 46.9814 17.6747H46.1281C45.64 17.6747 45.4425 18.2069 45.4425 18.479V19.137H46.9585V23.6277C43.9097 26.3275 43.29 24.8002 43.29 24.1323C43.2903 22.9408 43.294 20.7018 43.294 19.2471C43.294 18.0518 41.6357 17.6615 40.651 17.6126C39.6643 17.5633 39.805 18.3684 39.805 18.3684V24.3695C39.805 26.4538 40.6027 27.434 42.5384 27.434C44.4247 27.434 46.2998 25.8718 47.0055 25.0186C47.0055 25.0186 47.0055 26.6535 47.0354 27.8804C47.0399 28.0623 47.0456 28.2107 47.0517 28.311C47.0988 29.0923 47.8502 28.9963 47.8502 28.9963C50.5325 28.9954 50.4707 27.0221 50.4707 27.0221V19.1872H52.145C52.4785 19.1872 53.0491 19.0074 53.0491 18.3544C53.0491 17.9565 53.0405 17.6747 53.0405 17.6747H50.4707Z" fill="#005E9E"/>
<path fill-rule="evenodd" clip-rule="evenodd" d="M62.571 24.5279C61.6306 25.1286 60.5016 25.6166 58.8121 25.6166C57.2143 25.6166 56.0423 24.664 56.0423 22.695C56.0423 21.8048 56.57 19.6041 58.6284 19.6041C59.424 19.5875 59.8761 20.1278 59.8761 20.8215C59.8761 21.7279 58.8911 22.8174 56.7818 22.9453C57.0948 23.9009 58.1081 24.142 58.9279 24.142C60.1534 24.142 63.0988 23.2144 62.8574 20.362C62.6697 18.1426 60.6562 17.4846 59.0089 17.4846C55.1521 17.4846 52.2027 19.9522 52.4772 23.2986C52.777 26.9536 55.9121 27.4225 57.9812 27.4225C60.079 27.4225 62.0004 26.4974 62.7113 25.4679C62.8476 25.2702 63.0002 25.0049 63.0002 24.7737C63.0002 24.5169 62.8087 24.3754 62.571 24.5279Z" fill="#005E9E"/>
<path fill-rule="evenodd" clip-rule="evenodd" d="M35.5502 9.50304V5.78137H32.7497V9.50304H29.9263V0.224945H32.7497V3.70945H35.5502V0.224945H38.3875V9.50304H35.5502Z" fill="#ED1C24"/>
<path fill-rule="evenodd" clip-rule="evenodd" d="M44.8885 4.47162C44.8885 2.54764 44.5048 2.12297 43.2182 2.12297H42.4975V7.60626H43.2182C44.5048 7.60626 44.8885 7.13144 44.8885 5.20747V4.47162ZM43.123 9.66669C41.872 9.66669 40.9708 9.61695 39.7576 9.50302V0.224921C40.9708 0.111846 41.8364 0.063385 43.123 0.063385C46.247 0.063385 47.6652 1.31189 47.6652 4.47162L47.6657 5.20747C47.6657 8.41689 46.283 9.66669 43.123 9.66669Z" fill="#ED1C24"/>
<path fill-rule="evenodd" clip-rule="evenodd" d="M51.5965 2.22332V3.87184H54.9975V5.71972H51.5965V9.50304H48.7727V0.224945H55.2618V2.22332H51.5965Z" fill="#ED1C24"/>
<path fill-rule="evenodd" clip-rule="evenodd" d="M59.9754 9.7287C57.1741 9.7287 55.7681 8.69194 55.7681 5.29456V4.42056C55.7681 1.03638 57.1741 0 59.9749 0C60.6831 0 62.1009 0.137306 62.5816 0.274184V2.23557C61.945 2.18499 61.0913 2.13525 60.3223 2.13525C59.1814 2.13483 58.616 2.49659 58.616 4.42056V5.29456C58.616 7.24402 59.1814 7.60619 60.3223 7.60619C61.0913 7.60619 61.945 7.55608 62.5816 7.50551V9.45412C62.1009 9.60371 60.6831 9.7287 59.9754 9.7287Z" fill="#ED1C24"/>
<path fill-rule="evenodd" clip-rule="evenodd" d="M26.1065 27.2435V27.2431L18.6802 19.5255V19.5263H7.42625V7.83194H7.42712L0.000818094 0.114777H0V27.2435H26.1065Z" fill="#B11116"/>
<path fill-rule="evenodd" clip-rule="evenodd" d="M7.427 7.83194H18.6802V19.5255L26.1065 27.2431V0.114777H0.000732422L7.427 7.83194Z" fill="#ED1C24"/>
<path d="M96.2074 4.54545V22H92.517V4.54545H96.2074ZM102.646 14.4318V22H99.0154V8.90909H102.476V11.2188H102.629C102.919 10.4574 103.405 9.85511 104.086 9.41193C104.768 8.96307 105.595 8.73864 106.567 8.73864C107.476 8.73864 108.268 8.9375 108.944 9.33523C109.621 9.73295 110.146 10.3011 110.521 11.0398C110.896 11.7727 111.084 12.6477 111.084 13.6648V22H107.453V14.3125C107.459 13.5114 107.254 12.8864 106.839 12.4375C106.425 11.983 105.853 11.7557 105.126 11.7557C104.638 11.7557 104.206 11.8608 103.831 12.071C103.461 12.2812 103.172 12.5881 102.961 12.9915C102.757 13.3892 102.652 13.8693 102.646 14.4318ZM124.677 12.642L121.353 12.8466C121.296 12.5625 121.174 12.3068 120.987 12.0795C120.799 11.8466 120.552 11.6619 120.245 11.5256C119.944 11.3835 119.583 11.3125 119.163 11.3125C118.6 11.3125 118.126 11.4318 117.74 11.6705C117.353 11.9034 117.16 12.2159 117.16 12.608C117.16 12.9205 117.285 13.1847 117.535 13.4006C117.785 13.6165 118.214 13.7898 118.822 13.9205L121.191 14.3977C122.464 14.6591 123.413 15.0795 124.038 15.6591C124.663 16.2386 124.975 17 124.975 17.9432C124.975 18.8011 124.723 19.554 124.217 20.2017C123.717 20.8494 123.029 21.3551 122.154 21.7188C121.285 22.0767 120.282 22.2557 119.146 22.2557C117.413 22.2557 116.032 21.8949 115.004 21.1733C113.981 20.446 113.382 19.4574 113.206 18.2074L116.777 18.0199C116.885 18.5483 117.146 18.9517 117.561 19.2301C117.975 19.5028 118.507 19.6392 119.154 19.6392C119.791 19.6392 120.302 19.517 120.689 19.2727C121.081 19.0227 121.279 18.7017 121.285 18.3097C121.279 17.9801 121.14 17.7102 120.868 17.5C120.595 17.2841 120.174 17.1193 119.606 17.0057L117.339 16.554C116.061 16.2983 115.109 15.8551 114.484 15.2244C113.865 14.5937 113.555 13.7898 113.555 12.8125C113.555 11.9716 113.782 11.2472 114.237 10.6392C114.697 10.0312 115.342 9.5625 116.171 9.23295C117.007 8.90341 117.984 8.73864 119.103 8.73864C120.757 8.73864 122.058 9.08807 123.007 9.78693C123.961 10.4858 124.518 11.4375 124.677 12.642ZM127.102 26.9091V8.90909H130.681V11.108H130.843C131.002 10.7557 131.232 10.3977 131.533 10.0341C131.84 9.66477 132.238 9.35795 132.727 9.11364C133.221 8.86364 133.835 8.73864 134.568 8.73864C135.522 8.73864 136.403 8.98864 137.21 9.48864C138.016 9.98295 138.661 10.7301 139.144 11.7301C139.627 12.7244 139.869 13.9716 139.869 15.4716C139.869 16.9318 139.633 18.1648 139.161 19.1705C138.695 20.1705 138.059 20.929 137.252 21.446C136.451 21.9574 135.553 22.2131 134.559 22.2131C133.855 22.2131 133.255 22.0966 132.761 21.8636C132.272 21.6307 131.872 21.3381 131.559 20.9858C131.247 20.6278 131.008 20.267 130.843 19.9034H130.732V26.9091H127.102ZM130.656 15.4545C130.656 16.233 130.764 16.9119 130.98 17.4915C131.195 18.071 131.508 18.5227 131.917 18.8466C132.326 19.1648 132.823 19.3239 133.408 19.3239C133.999 19.3239 134.499 19.1619 134.908 18.8381C135.318 18.5085 135.627 18.054 135.837 17.4744C136.053 16.8892 136.161 16.2159 136.161 15.4545C136.161 14.6989 136.056 14.0341 135.846 13.4602C135.636 12.8864 135.326 12.4375 134.917 12.1136C134.508 11.7898 134.005 11.6278 133.408 11.6278C132.818 11.6278 132.318 11.7841 131.908 12.0966C131.505 12.4091 131.195 12.8523 130.98 13.4261C130.764 14 130.656 14.6761 130.656 15.4545ZM142.129 22V8.90909H145.76V22H142.129ZM143.953 7.22159C143.413 7.22159 142.95 7.04261 142.564 6.68466C142.183 6.32102 141.993 5.88636 141.993 5.38068C141.993 4.88068 142.183 4.4517 142.564 4.09375C142.95 3.73011 143.413 3.54829 143.953 3.54829C144.493 3.54829 144.953 3.73011 145.334 4.09375C145.72 4.4517 145.913 4.88068 145.913 5.38068C145.913 5.88636 145.72 6.32102 145.334 6.68466C144.953 7.04261 144.493 7.22159 143.953 7.22159ZM148.508 22V8.90909H152.028V11.1932H152.164C152.403 10.3807 152.804 9.76705 153.366 9.35227C153.929 8.93182 154.576 8.72159 155.309 8.72159C155.491 8.72159 155.687 8.73295 155.897 8.75568C156.108 8.77841 156.292 8.80966 156.451 8.84943V12.071C156.281 12.0199 156.045 11.9744 155.744 11.9347C155.443 11.8949 155.167 11.875 154.917 11.875C154.383 11.875 153.906 11.9915 153.486 12.2244C153.071 12.4517 152.741 12.7699 152.497 13.179C152.258 13.5881 152.139 14.0597 152.139 14.5938V22H148.508ZM163.525 22.2557C162.178 22.2557 161.019 21.983 160.048 21.4375C159.082 20.8864 158.338 20.108 157.815 19.1023C157.292 18.0909 157.031 16.8949 157.031 15.5142C157.031 14.1676 157.292 12.9858 157.815 11.9688C158.338 10.9517 159.073 10.1591 160.022 9.59091C160.977 9.02273 162.096 8.73864 163.38 8.73864C164.244 8.73864 165.048 8.87784 165.792 9.15625C166.542 9.42898 167.196 9.84091 167.752 10.392C168.315 10.9432 168.752 11.6364 169.065 12.4716C169.377 13.3011 169.534 14.2727 169.534 15.3864V16.3835H158.48V14.1335H166.116C166.116 13.6108 166.002 13.1477 165.775 12.7443C165.548 12.3409 165.232 12.0256 164.829 11.7983C164.431 11.5653 163.968 11.4489 163.44 11.4489C162.889 11.4489 162.4 11.5767 161.974 11.8324C161.553 12.0824 161.224 12.4205 160.985 12.8466C160.747 13.267 160.625 13.7358 160.619 14.2528V16.392C160.619 17.0398 160.738 17.5994 160.977 18.071C161.221 18.5426 161.565 18.9062 162.008 19.1619C162.451 19.4176 162.977 19.5455 163.585 19.5455C163.988 19.5455 164.357 19.4886 164.693 19.375C165.028 19.2614 165.315 19.0909 165.553 18.8636C165.792 18.6364 165.974 18.358 166.099 18.0284L169.457 18.25C169.286 19.0568 168.937 19.7614 168.409 20.3636C167.886 20.9602 167.21 21.4261 166.38 21.7614C165.556 22.0909 164.605 22.2557 163.525 22.2557Z" fill="url(#paint0_linear_4095_14204)"/>
<path d="M77 0V28.5" stroke="#A4B6DA"/>
<defs>
<linearGradient id="paint0_linear_4095_14204" x1="89.3349" y1="8.8139" x2="171.731" y2="9.40732" gradientUnits="userSpaceOnUse">
<stop stop-color="#ED1C24"/>
<stop offset="1" stop-color="#005E9E"/>
</linearGradient>
</defs>
</svg>
