<svg width="136" height="60" viewBox="0 0 136 60" fill="none" xmlns="http://www.w3.org/2000/svg">
<path fill-rule="evenodd" clip-rule="evenodd" d="M89.5961 34.5249C91.9928 34.5249 93.936 32.8626 93.936 30.8115C93.936 28.7614 91.9928 27.1018 89.5961 27.1018C87.1995 27.1018 85.2554 28.7614 85.2554 30.8115C85.2563 32.8626 87.1995 34.5249 89.5961 34.5249Z" fill="#005E9E"/>
<path fill-rule="evenodd" clip-rule="evenodd" d="M84.1302 53.7298C84.1302 52.6296 83.3617 51.677 82.2975 51.6604C79.5307 51.6147 72.1449 51.6604 72.1449 51.6604C72.1449 51.6604 72.2388 41.5707 72.231 35.4501H72.2344C72.2476 34.2101 72.2827 32.0191 72.266 31.3051C72.2046 28.8046 68.5113 28.0235 66.4296 27.9242C64.5407 27.8328 64.6443 29.4871 64.6443 29.4871V54.3745C64.6443 55.9813 66.3761 56.363 66.3761 56.363H84.1504C84.1504 56.363 84.1302 55.0456 84.1302 53.7298Z" fill="#005E9E"/>
<path fill-rule="evenodd" clip-rule="evenodd" d="M108.683 36.5683C107.86 28.0151 112.867 28.425 114.714 28.8549C115.409 28.9597 115.417 28.2499 115.405 28.0477C115.33 27.3485 114.963 26.7547 114.458 26.3291C112.665 24.8162 109.332 25.008 109.332 25.008C103.276 25.008 101.392 29.5217 101.392 33.212C101.392 35.1127 101.2 36.5683 101.2 36.5683H99.3702C98.3236 36.5683 97.8999 37.6694 97.8999 38.2323V39.5937H101.151V48.8849C94.6129 54.4706 93.2838 51.3106 93.2838 49.9289C93.2846 47.4637 93.2926 42.8312 93.2926 39.8216C93.2926 37.3484 89.7362 36.541 87.6246 36.4398C85.5086 36.3379 85.8103 38.0036 85.8103 38.0036V50.4196C85.8103 54.7319 87.521 56.7601 91.6722 56.7601C95.7173 56.7601 99.7386 53.5279 101.252 51.7627C101.252 51.7627 101.252 55.1452 101.316 57.6835C101.326 58.0599 101.338 58.3669 101.351 58.5745C101.452 60.191 103.064 59.9923 103.064 59.9923C108.816 59.9904 108.683 55.9077 108.683 55.9077V39.6975H112.274C112.989 39.6975 114.213 39.3256 114.213 37.9746C114.213 37.1514 114.194 36.5683 114.194 36.5683H108.683Z" fill="#005E9E"/>
<path fill-rule="evenodd" clip-rule="evenodd" d="M134.633 50.7474C132.616 51.9902 130.195 52.9999 126.571 52.9999C123.145 52.9999 120.631 51.0289 120.631 46.9551C120.631 45.1133 121.763 40.5601 126.178 40.5601C127.884 40.5258 128.853 41.6437 128.853 43.079C128.853 44.9542 126.741 47.2084 122.217 47.4731C122.889 49.4502 125.062 49.9489 126.82 49.9489C129.448 49.9489 135.764 48.0297 135.247 42.1283C134.844 37.5364 130.526 36.175 126.993 36.175C118.722 36.175 112.397 41.2804 112.986 48.2039C113.629 55.7659 120.352 56.7361 124.79 56.7361C129.288 56.7361 133.409 54.8222 134.933 52.6921C135.226 52.2831 135.553 51.7343 135.553 51.2558C135.553 50.7245 135.142 50.4318 134.633 50.7474Z" fill="#005E9E"/>
<path fill-rule="evenodd" clip-rule="evenodd" d="M76.6858 19.6614V11.9614H70.68V19.6614H64.625V0.465378H70.68V7.6747H76.6858V0.465378H82.7705V19.6614H76.6858Z" fill="#ED1C24"/>
<path fill-rule="evenodd" clip-rule="evenodd" d="M96.7119 9.25164C96.7119 5.27098 95.889 4.39236 93.13 4.39236H91.5843V15.7371H93.13C95.889 15.7371 96.7119 14.7547 96.7119 10.7741V9.25164ZM92.9257 20.0001C90.2431 20.0001 88.3103 19.8972 85.7085 19.6614V0.465362C88.3103 0.231414 90.1667 0.131149 92.9257 0.131149C99.6253 0.131149 102.667 2.71427 102.667 9.25164L102.668 10.7741C102.668 17.4143 99.7025 20.0001 92.9257 20.0001Z" fill="#ED1C24"/>
<path fill-rule="evenodd" clip-rule="evenodd" d="M111.098 4.59994V8.01067H118.391V11.8339H111.098V19.6614H105.042V0.465378H118.958V4.59994H111.098Z" fill="#ED1C24"/>
<path fill-rule="evenodd" clip-rule="evenodd" d="M129.067 20.1283C123.059 20.1283 120.044 17.9833 120.044 10.9543V9.14599C120.044 2.14423 123.059 0 129.066 0C130.584 0 133.625 0.284081 134.656 0.567276V4.62532C133.291 4.52067 131.46 4.41776 129.811 4.41776C127.364 4.41688 126.151 5.16535 126.151 9.14599V10.9543C126.151 14.9876 127.364 15.7369 129.811 15.7369C131.46 15.7369 133.291 15.6333 134.656 15.5286V19.5603C133.625 19.8698 130.584 20.1283 129.067 20.1283Z" fill="#ED1C24"/>
<path fill-rule="evenodd" clip-rule="evenodd" d="M56.4335 56.3658V56.365L40.5076 40.3975V40.3992H16.3731V16.204H16.375L0.44902 0.237457H0.447266V56.3658H56.4335Z" fill="#B11116"/>
<path fill-rule="evenodd" clip-rule="evenodd" d="M16.3746 16.204H40.5074V40.3975L56.4333 56.365V0.237457H0.44873L16.3746 16.204Z" fill="#ED1C24"/>
</svg>
